ZiroliWes-Regular-Medium2.ufo
<glyph name="comma" format="1">
  <advance width="239.0"/>
  <unicode hex="002C"/>
  <outline>
    <contour>
      <point x="23" y="34" type="curve"/>
      <point x="13" y="46" type="line"/>
      <point x="37" y="71"/>
      <point x="96" y="101"/>
      <point x="133" y="101" type="curve" smooth="yes"/>
      <point x="184" y="101"/>
      <point x="195" y="67"/>
      <point x="195" y="41" type="curve" smooth="yes"/>
      <point x="195" y="-15"/>
      <point x="150" y="-121"/>
      <point x="53" y="-193" type="curve"/>
      <point x="45" y="-178" type="line"/>
      <point x="103" y="-131"/>
      <point x="119" y="-75"/>
      <point x="119" y="-27" type="curve" smooth="yes"/>
      <point x="119" y="27"/>
      <point x="92" y="55"/>
      <point x="67" y="55" type="curve" smooth="yes"/>
      <point x="50" y="55"/>
      <point x="36" y="49"/>
    </contour>
  </outline>
</glyph>
<glyph name="hyphen" format="1">
  <advance width="534.0"/>
  <unicode hex="002D"/>
  <outline>
    <contour>
      <point x="71" y="412" type="line"/>
      <point x="73" y="366"/>
      <point x="64" y="312"/>
      <point x="33" y="249" type="curve"/>
      <point x="46" y="248" type="line"/>
      <point x="66" y="295"/>
      <point x="105" y="303"/>
      <point x="257" y="303" type="curve" smooth="yes"/>
      <point x="318" y="303" type="line" smooth="yes"/>
      <point x="455" y="303"/>
      <point x="464" y="286"/>
      <point x="464" y="245" type="curve"/>
      <point x="475" y="245" type="line"/>
      <point x="471" y="294"/>
      <point x="475" y="361"/>
      <point x="493" y="412" type="curve"/>
      <point x="483" y="412" type="line"/>
      <point x="463" y="358"/>
      <point x="428" y="355"/>
      <point x="274" y="355" type="curve" smooth="yes"/>
      <point x="221" y="355" type="line" smooth="yes"/>
      <point x="92" y="355"/>
      <point x="81" y="362"/>
      <point x="81" y="412" type="curve"/>
    </contour>
  </outline>
</glyph>
<glyph name="two" format="1">
  <advance width="564.0"/>
  <unicode hex="0032"/>
  <outline>
    <contour>
      <point x="133" y="27" type="line"/>
      <point x="263" y="120"/>
      <point x="500" y="317"/>
      <point x="500" y="476" type="curve" smooth="yes"/>
      <point x="500" y="614"/>
      <point x="404" y="693"/>
      <point x="274" y="693" type="curve" smooth="yes"/>
      <point x="137" y="693"/>
      <point x="39" y="608"/>
      <point x="39" y="509" type="curve" smooth="yes"/>
      <point x="39" y="453"/>
      <point x="83" y="404"/>
      <point x="136" y="395" type="curve"/>
      <point x="142" y="403" type="line"/>
      <point x="118" y="418"/>
      <point x="99" y="449"/>
      <point x="99" y="496" type="curve" smooth="yes"/>
      <point x="99" y="577"/>
      <point x="160" y="630"/>
      <point x="243" y="630" type="curve" smooth="yes"/>
      <point x="314" y="630"/>
      <point x="376" y="578"/>
      <point x="376" y="486" type="curve" smooth="yes"/>
      <point x="376" y="347"/>
      <point x="204" y="152"/>
      <point x="37" y="11" type="curve"/>
    </contour>
    <contour>
      <point x="122" y="66" type="curve"/>
      <point x="37" y="11" type="line"/>
      <point x="37" y="-8" type="line"/>
      <point x="91" y="-5"/>
      <point x="221" y="0"/>
      <point x="242" y="0" type="curve" smooth="yes"/>
      <point x="291" y="0"/>
      <point x="439" y="2"/>
      <point x="510" y="-2" type="curve"/>
      <point x="510" y="14" type="line" smooth="yes"/>
      <point x="510" y="63"/>
      <point x="506" y="114"/>
      <point x="536" y="211" type="curve"/>
      <point x="518" y="215" type="line"/>
      <point x="499" y="86"/>
      <point x="455" y="54"/>
      <point x="282" y="54" type="curve" smooth="yes"/>
      <point x="220" y="54"/>
      <point x="146" y="62"/>
    </contour>
  </outline>
</glyph>
<glyph name="five" format="1">
  <advance width="577.0"/>
  <unicode hex="0035"/>
  <outline>
    <contour>
      <point x="104" y="672" type="line"/>
      <point x="113" y="619"/>
      <point x="106" y="484"/>
      <point x="95" y="355" type="curve"/>
      <point x="198" y="381" type="line"/>
      <point x="193" y="484"/>
      <point x="204" y="579"/>
      <point x="209" y="641" type="curve"/>
    </contour>
    <contour>
      <point x="175" y="410" type="curve"/>
      <point x="95" y="355" type="line"/>
      <point x="104" y="346" type="line"/>
      <point x="131" y="357"/>
      <point x="171" y="370"/>
      <point x="219" y="370" type="curve" smooth="yes"/>
      <point x="334" y="370"/>
      <point x="415" y="306"/>
      <point x="415" y="200" type="curve" smooth="yes"/>
      <point x="415" y="152"/>
      <point x="402" y="117"/>
      <point x="378" y="88" type="curve" smooth="yes"/>
      <point x="348" y="54"/>
      <point x="304" y="35"/>
      <point x="256" y="36" type="curve" smooth="yes"/>
      <point x="168" y="37"/>
      <point x="92" y="95"/>
      <point x="92" y="167" type="curve" smooth="yes"/>
      <point x="92" y="181"/>
      <point x="94" y="194"/>
      <point x="102" y="204" type="curve"/>
      <point x="94" y="212" type="line"/>
      <point x="76" y="192"/>
      <point x="54" y="154"/>
      <point x="54" y="110" type="curve" smooth="yes"/>
      <point x="54" y="32"/>
      <point x="121" y="-18"/>
      <point x="250" y="-18" type="curve" smooth="yes"/>
      <point x="416" y="-18"/>
      <point x="528" y="82"/>
      <point x="528" y="219" type="curve" smooth="yes"/>
      <point x="528" y="353"/>
      <point x="441" y="427"/>
      <point x="314" y="427" type="curve" smooth="yes"/>
      <point x="270" y="427"/>
      <point x="213" y="420"/>
    </contour>
    <contour>
      <point x="181" y="601" type="line" name=""/>
      <point x="201" y="604"/>
      <point x="259" y="612"/>
      <point x="290" y="612" type="curve" smooth="yes" name=""/>
      <point x="436" y="612"/>
      <point x="476" y="595"/>
      <point x="485" y="496" type="curve" name=""/>
      <point x="501" y="499" type="line" name=""/>
      <point x="478" y="589"/>
      <point x="470" y="644"/>
      <point x="479" y="701" type="curve" name=""/>
      <point x="469" y="704" type="line" name=""/>
      <point x="467" y="697"/>
      <point x="461" y="689"/>
      <point x="452" y="683" type="curve" smooth="yes"/>
      <point x="433" y="672"/>
      <point x="413" y="666"/>
      <point x="348" y="666" type="curve" name=""/>
      <point x="205" y="663" type="line" smooth="yes" name=""/>
      <point x="155" y="662"/>
      <point x="125" y="672"/>
      <point x="106" y="680" type="curve"/>
      <point x="104" y="672" type="line"/>
    </contour>
  </outline>
</glyph>
<glyph name="six" format="1">
  <advance width="630.0"/>
  <unicode hex="0036"/>
  <outline>
    <contour>
      <point x="233" y="139" type="line"/>
      <point x="221" y="171"/>
      <point x="217" y="198"/>
      <point x="217" y="226" type="curve" smooth="yes"/>
      <point x="217" y="304"/>
      <point x="267" y="374"/>
      <point x="359" y="374" type="curve" smooth="yes"/>
      <point x="443" y="374"/>
      <point x="501" y="301"/>
      <point x="501" y="198" type="curve" smooth="yes"/>
      <point x="501" y="101"/>
      <point x="450" y="43"/>
      <point x="371" y="43" type="curve" smooth="yes"/>
      <point x="292" y="43"/>
      <point x="205" y="119"/>
      <point x="202" y="279" type="curve"/>
      <point x="189" y="280" type="line"/>
      <point x="161" y="496"/>
      <point x="253" y="653"/>
      <point x="394" y="653" type="curve" smooth="yes"/>
      <point x="469" y="653"/>
      <point x="513" y="622"/>
      <point x="539" y="595" type="curve" smooth="yes"/>
      <point x="556" y="577"/>
      <point x="561" y="556"/>
      <point x="558" y="541" type="curve"/>
      <point x="568" y="541" type="line"/>
      <point x="578" y="553"/>
      <point x="599" y="589"/>
      <point x="598" y="627" type="curve" smooth="yes"/>
      <point x="597" y="667"/>
      <point x="547" y="708"/>
      <point x="449" y="708" type="curve" smooth="yes"/>
      <point x="399" y="708"/>
      <point x="333" y="704"/>
      <point x="264" y="669" type="curve" smooth="yes"/>
      <point x="154" y="614"/>
      <point x="75" y="485"/>
      <point x="75" y="332" type="curve" smooth="yes"/>
      <point x="75" y="130"/>
      <point x="176" y="-11"/>
      <point x="355" y="-11" type="curve" smooth="yes"/>
      <point x="518" y="-11"/>
      <point x="603" y="121"/>
      <point x="603" y="231" type="curve" smooth="yes"/>
      <point x="603" y="364"/>
      <point x="506" y="448"/>
      <point x="394" y="448" type="curve" smooth="yes"/>
      <point x="265" y="448"/>
      <point x="183" y="347"/>
      <point x="177" y="213" type="curve"/>
    </contour>
  </outline>
</glyph>
<glyph name="seven" format="1">
  <advance width="581.0"/>
  <unicode hex="0037"/>
  <outline>
    <contour>
      <point x="386" y="-4" type="curve"/>
      <point x="386" y="12" type="line"/>
      <point x="330" y="12"/>
      <point x="314" y="28"/>
      <point x="358" y="145" type="curve" smooth="yes"/>
      <point x="451" y="392"/>
      <point x="557" y="608"/>
      <point x="592" y="666" type="curve"/>
      <point x="590" y="680" type="line"/>
      <point x="561" y="673"/>
      <point x="423" y="670"/>
      <point x="327" y="670" type="curve"/>
      <point x="327" y="646" type="line"/>
      <point x="444" y="630" type="line"/>
      <point x="416" y="533"/>
      <point x="324" y="307"/>
      <point x="272" y="187" type="curve" smooth="yes"/>
      <point x="209" y="44"/>
      <point x="180" y="16"/>
      <point x="101" y="12" type="curve"/>
      <point x="101" y="-4" type="line"/>
      <point x="138" y="0"/>
      <point x="187" y="4"/>
      <point x="228" y="4" type="curve" smooth="yes"/>
      <point x="270" y="4"/>
      <point x="350" y="0"/>
    </contour>
    <contour>
      <point x="474" y="609" type="curve"/>
      <point x="474" y="625"/>
      <point x="481" y="656"/>
      <point x="481" y="670" type="curve"/>
      <point x="345" y="670" type="line" smooth="yes"/>
      <point x="260" y="670"/>
      <point x="186" y="670"/>
      <point x="139" y="681" type="curve" smooth="yes"/>
      <point x="113" y="687"/>
      <point x="99" y="696"/>
      <point x="96" y="706" type="curve"/>
      <point x="86" y="704" type="line"/>
      <point x="88" y="662"/>
      <point x="80" y="566"/>
      <point x="49" y="489" type="curve"/>
      <point x="67" y="482" type="line"/>
      <point x="89" y="598"/>
      <point x="144" y="616"/>
      <point x="287" y="616" type="curve" smooth="yes"/>
      <point x="353" y="616"/>
      <point x="403" y="615"/>
    </contour>
  </outline>
</glyph>
<glyph name="eight" format="1">
  <advance width="686.0"/>
  <unicode hex="0038"/>
  <outline>
    <contour>
      <point x="342" y="-14" type="curve" smooth="yes"/>
      <point x="504" y="-14"/>
      <point x="610" y="66"/>
      <point x="610" y="210" type="curve" smooth="yes"/>
      <point x="610" y="300"/>
      <point x="543" y="378"/>
      <point x="414" y="388" type="curve"/>
      <point x="343" y="384" type="line"/>
      <point x="292" y="388" type="line"/>
      <point x="172" y="381"/>
      <point x="84" y="298"/>
      <point x="84" y="186" type="curve" smooth="yes"/>
      <point x="84" y="75"/>
      <point x="180" y="-14"/>
    </contour>
    <contour>
      <point x="350" y="40" type="curve" smooth="yes"/>
      <point x="256" y="40"/>
      <point x="194" y="106"/>
      <point x="194" y="199" type="curve" smooth="yes"/>
      <point x="194" y="278"/>
      <point x="248" y="347"/>
      <point x="346" y="347" type="curve" smooth="yes"/>
      <point x="442" y="347"/>
      <point x="497" y="275"/>
      <point x="497" y="189" type="curve" smooth="yes"/>
      <point x="497" y="91"/>
      <point x="434" y="40"/>
    </contour>
    <contour>
      <point x="423" y="377" type="line"/>
      <point x="519" y="400"/>
      <point x="567" y="468"/>
      <point x="567" y="537" type="curve" smooth="yes"/>
      <point x="567" y="625"/>
      <point x="505" y="709"/>
      <point x="353" y="709" type="curve" smooth="yes"/>
      <point x="207" y="709"/>
      <point x="123" y="621"/>
      <point x="123" y="532" type="curve" smooth="yes"/>
      <point x="123" y="446"/>
      <point x="186" y="391"/>
      <point x="257" y="375" type="curve"/>
      <point x="342" y="371" type="line"/>
    </contour>
    <contour>
      <point x="225" y="539" type="curve" smooth="yes"/>
      <point x="225" y="615"/>
      <point x="282" y="657"/>
      <point x="341" y="657" type="curve" smooth="yes"/>
      <point x="420" y="657"/>
      <point x="463" y="597"/>
      <point x="463" y="531" type="curve" smooth="yes"/>
      <point x="463" y="458"/>
      <point x="426" y="401"/>
      <point x="347" y="401" type="curve" smooth="yes"/>
      <point x="270" y="401"/>
      <point x="225" y="466"/>
    </contour>
  </outline>
</glyph>
<glyph name="question" format="1">
  <advance width="500"/>
  <unicode hex="003F"/>
  <outline>
    <contour>
      <point x="252" y="184" type="curve" smooth="yes"/>
      <point x="289" y="183"/>
      <point x="348" y="214"/>
      <point x="371" y="239" type="curve"/>
      <point x="362" y="251" type="line"/>
      <point x="349" y="235"/>
      <point x="334" y="228"/>
      <point x="322" y="228" type="curve" smooth="yes"/>
      <point x="296" y="228"/>
      <point x="273" y="254"/>
      <point x="273" y="294" type="curve" smooth="yes"/>
      <point x="273" y="327"/>
      <point x="298" y="374"/>
      <point x="327" y="415" type="curve" smooth="yes"/>
      <point x="359" y="461"/>
      <point x="407" y="506"/>
      <point x="407" y="574" type="curve" smooth="yes"/>
      <point x="407" y="625"/>
      <point x="359" y="692"/>
      <point x="262" y="692" type="curve" smooth="yes"/>
      <point x="174" y="692"/>
      <point x="109" y="649"/>
      <point x="109" y="595" type="curve" smooth="yes"/>
      <point x="109" y="561"/>
      <point x="138" y="537"/>
      <point x="165" y="531" type="curve"/>
      <point x="173" y="539" type="line"/>
      <point x="163" y="546"/>
      <point x="157" y="565"/>
      <point x="157" y="581" type="curve" smooth="yes"/>
      <point x="157" y="629"/>
      <point x="207" y="644"/>
      <point x="239" y="644" type="curve" smooth="yes"/>
      <point x="287" y="644"/>
      <point x="312" y="595"/>
      <point x="312" y="538" type="curve" smooth="yes"/>
      <point x="312" y="505"/>
      <point x="294" y="461"/>
      <point x="261" y="402" type="curve" smooth="yes"/>
      <point x="216" y="322"/>
      <point x="190" y="269"/>
      <point x="190" y="239" type="curve" smooth="yes"/>
      <point x="190" y="214"/>
      <point x="200" y="183"/>
    </contour>
    <component base="period" xOffset="147" yOffset="-1"/>
  </outline>
</glyph>
<glyph name="at" format="1">
  <advance width="794.0"/>
  <unicode hex="0040"/>
  <outline>
    <contour>
      <point x="360" y="542" type="line"/>
      <point x="287" y="339" type="line" smooth="yes"/>
      <point x="231" y="184"/>
      <point x="221" y="161"/>
      <point x="175" y="157" type="curve"/>
      <point x="175" y="148" type="line"/>
      <point x="191" y="150"/>
      <point x="217" y="153"/>
      <point x="239" y="153" type="curve" smooth="yes"/>
      <point x="254" y="153"/>
      <point x="296" y="150"/>
      <point x="312" y="148" type="curve"/>
      <point x="312" y="157" type="line"/>
      <point x="277" y="158"/>
      <point x="274" y="167"/>
      <point x="301" y="266" type="curve" smooth="yes"/>
      <point x="312" y="304"/>
      <point x="357" y="422"/>
      <point x="373" y="471" type="curve"/>
    </contour>
    <contour>
      <point x="431" y="242" type="curve" smooth="yes"/>
      <point x="457" y="168"/>
      <point x="447" y="157"/>
      <point x="413" y="157" type="curve"/>
      <point x="413" y="148" type="line"/>
      <point x="428" y="150"/>
      <point x="469" y="153"/>
      <point x="480" y="153" type="curve" smooth="yes"/>
      <point x="495" y="153"/>
      <point x="544" y="150"/>
      <point x="565" y="148" type="curve"/>
      <point x="565" y="157" type="line"/>
      <point x="534" y="158"/>
      <point x="520" y="175"/>
      <point x="500" y="221" type="curve" smooth="yes"/>
      <point x="449" y="341"/>
      <point x="406" y="443"/>
      <point x="367" y="542" type="curve"/>
      <point x="360" y="542" type="line"/>
      <point x="345" y="445" type="line"/>
      <point x="376" y="374"/>
      <point x="402" y="320"/>
    </contour>
    <contour>
      <point x="720" y="325" type="curve" smooth="yes"/>
      <point x="720" y="509"/>
      <point x="579" y="676"/>
      <point x="394" y="676" type="curve" smooth="yes"/>
      <point x="227" y="676"/>
      <point x="84" y="570"/>
      <point x="46" y="400" type="curve"/>
      <point x="64" y="395" type="line"/>
      <point x="94" y="541"/>
      <point x="235" y="631"/>
      <point x="367" y="631" type="curve" smooth="yes"/>
      <point x="556" y="631"/>
      <point x="667" y="470"/>
      <point x="667" y="273" type="curve" smooth="yes"/>
      <point x="667" y="106"/>
      <point x="565" y="-62"/>
      <point x="376" y="-62" type="curve" smooth="yes"/>
      <point x="232" y="-62"/>
      <point x="104" y="20"/>
      <point x="104" y="135" type="curve" smooth="yes"/>
      <point x="104" y="280"/>
      <point x="237" y="330"/>
      <point x="438" y="255" type="curve"/>
      <point x="438" y="288" type="line"/>
      <point x="384" y="307"/>
      <point x="332" y="316"/>
      <point x="285" y="317" type="curve" smooth="yes"/>
      <point x="152" y="319"/>
      <point x="57" y="242"/>
      <point x="57" y="113" type="curve" smooth="yes"/>
      <point x="57" y="-13"/>
      <point x="160" y="-99"/>
      <point x="335" y="-99" type="curve" smooth="yes"/>
      <point x="565" y="-99"/>
      <point x="720" y="57"/>
    </contour>
  </outline>
</glyph>
<glyph name="B" format="1">
  <advance width="616.0"/>
  <unicode hex="0042"/>
  <outline>
    <contour>
      <point x="199" y="375" type="line"/>
      <point x="190" y="328" type="line"/>
      <point x="210" y="333"/>
      <point x="237" y="338"/>
      <point x="276" y="338" type="curve" smooth="yes"/>
      <point x="333" y="338"/>
      <point x="388" y="325"/>
      <point x="420" y="302" type="curve" smooth="yes"/>
      <point x="459" y="274"/>
      <point x="476" y="228"/>
      <point x="476" y="182" type="curve" smooth="yes"/>
      <point x="476" y="90"/>
      <point x="421" y="45"/>
      <point x="337" y="45" type="curve" smooth="yes"/>
      <point x="259" y="45"/>
      <point x="215" y="74"/>
      <point x="195" y="93" type="curve"/>
      <point x="160" y="1" type="line"/>
      <point x="201" y="1"/>
      <point x="281" y="-6"/>
      <point x="342" y="-6" type="curve" smooth="yes"/>
      <point x="462" y="-6"/>
      <point x="584" y="49"/>
      <point x="584" y="203" type="curve" smooth="yes"/>
      <point x="584" y="305"/>
      <point x="487" y="392"/>
      <point x="332" y="377" type="curve"/>
      <point x="296" y="377" type="line"/>
    </contour>
    <contour>
      <point x="533" y="530" type="curve" smooth="yes"/>
      <point x="533" y="637"/>
      <point x="438" y="676"/>
      <point x="329" y="676" type="curve" smooth="yes"/>
      <point x="277" y="676"/>
      <point x="225" y="672"/>
      <point x="181" y="672" type="curve"/>
      <point x="210" y="609" type="line"/>
      <point x="228" y="617"/>
      <point x="265" y="623"/>
      <point x="297" y="623" type="curve" smooth="yes"/>
      <point x="406" y="623"/>
      <point x="439" y="567"/>
      <point x="439" y="511" type="curve" smooth="yes"/>
      <point x="439" y="444"/>
      <point x="392" y="393"/>
      <point x="309" y="393" type="curve" smooth="yes"/>
      <point x="255" y="393"/>
      <point x="230" y="401"/>
      <point x="212" y="405" type="curve"/>
      <point x="211" y="369" type="line"/>
      <point x="350" y="373" type="line"/>
      <point x="393" y="376"/>
      <point x="420" y="381"/>
      <point x="452" y="397" type="curve" smooth="yes"/>
      <point x="484" y="413"/>
      <point x="533" y="458"/>
    </contour>
    <contour>
      <point x="242" y="2" type="line"/>
      <point x="239" y="111"/>
      <point x="240" y="231"/>
      <point x="241" y="351" type="curve"/>
      <point x="240" y="359" type="line"/>
      <point x="237" y="479"/>
      <point x="240" y="572"/>
      <point x="243" y="672" type="curve"/>
      <point x="173" y="672" type="line"/>
      <point x="146" y="672"/>
      <point x="80" y="676"/>
      <point x="42" y="680" type="curve"/>
      <point x="42" y="666" type="line"/>
      <point x="129" y="662"/>
      <point x="140" y="637"/>
      <point x="140" y="424" type="curve" smooth="yes"/>
      <point x="140" y="250" type="line" smooth="yes"/>
      <point x="140" y="44"/>
      <point x="136" y="13"/>
      <point x="38" y="12" type="curve"/>
      <point x="38" y="-4" type="line"/>
      <point x="91" y="0"/>
      <point x="125" y="1"/>
      <point x="164" y="1" type="curve"/>
    </contour>
  </outline>
</glyph>
<glyph name="D" format="1">
  <advance width="750.0"/>
  <unicode hex="0044"/>
  <outline>
    <contour>
      <point x="182" y="602" type="curve"/>
      <point x="196" y="605"/>
      <point x="257" y="619"/>
      <point x="310" y="619" type="curve" smooth="yes"/>
      <point x="481" y="619"/>
      <point x="591" y="526"/>
      <point x="591" y="321" type="curve" smooth="yes"/>
      <point x="591" y="163"/>
      <point x="500" y="50"/>
      <point x="352" y="50" type="curve" smooth="yes"/>
      <point x="273" y="50"/>
      <point x="233" y="71"/>
      <point x="221" y="80" type="curve"/>
      <point x="150" y="2" type="line"/>
      <point x="197" y="2"/>
      <point x="282" y="-4"/>
      <point x="341" y="-4" type="curve" smooth="yes"/>
      <point x="562" y="-4"/>
      <point x="705" y="139"/>
      <point x="705" y="363" type="curve" smooth="yes"/>
      <point x="705" y="574"/>
      <point x="547" y="675"/>
      <point x="324" y="675" type="curve" smooth="yes"/>
      <point x="266" y="675"/>
      <point x="243" y="672"/>
      <point x="190" y="672" type="curve"/>
      <point x="190" y="662"/>
      <point x="182" y="615"/>
    </contour>
    <contour>
      <point x="242" y="4" type="line"/>
      <point x="241" y="53"/>
      <point x="240" y="100"/>
      <point x="240" y="338" type="curve" smooth="yes"/>
      <point x="240" y="600"/>
      <point x="242" y="634"/>
      <point x="243" y="672" type="curve"/>
      <point x="190" y="672" type="line"/>
      <point x="158" y="672"/>
      <point x="87" y="675"/>
      <point x="42" y="680" type="curve"/>
      <point x="42" y="666" type="line"/>
      <point x="130" y="662"/>
      <point x="140" y="637"/>
      <point x="140" y="424" type="curve" smooth="yes"/>
      <point x="140" y="248" type="line" smooth="yes"/>
      <point x="140" y="40"/>
      <point x="132" y="12"/>
      <point x="38" y="12" type="curve"/>
      <point x="38" y="-4" type="line"/>
      <point x="85" y="0"/>
      <point x="111" y="2"/>
      <point x="147" y="2" type="curve"/>
    </contour>
  </outline>
</glyph>
<glyph name="E" format="1">
  <advance width="603.0"/>
  <unicode hex="0045"/>
  <outline>
    <contour>
      <point x="190" y="607" type="line" name=""/>
      <point x="210" y="610"/>
      <point x="268" y="618"/>
      <point x="299" y="618" type="curve" smooth="yes" name=""/>
      <point x="453" y="618"/>
      <point x="496" y="600"/>
      <point x="505" y="496" type="curve" name=""/>
      <point x="521" y="499" type="line" name=""/>
      <point x="498" y="588"/>
      <point x="490" y="642"/>
      <point x="499" y="698" type="curve" name=""/>
      <point x="489" y="701" type="line" name=""/>
      <point x="483" y="681"/>
      <point x="456" y="672"/>
      <point x="357" y="672" type="curve" name=""/>
      <point x="214" y="669" type="line" name=""/>
    </contour>
    <contour>
      <point x="204" y="323" type="line"/>
      <point x="218" y="324"/>
      <point x="258" y="326"/>
      <point x="271" y="326" type="curve" smooth="yes"/>
      <point x="330" y="326"/>
      <point x="379" y="321"/>
      <point x="412" y="299" type="curve" smooth="yes"/>
      <point x="433" y="286"/>
      <point x="450" y="264"/>
      <point x="469" y="228" type="curve"/>
      <point x="482" y="236" type="line"/>
      <point x="442" y="294"/>
      <point x="423" y="356"/>
      <point x="410" y="392" type="curve" smooth="yes"/>
      <point x="396" y="430"/>
      <point x="390" y="461"/>
      <point x="384" y="495" type="curve"/>
      <point x="368" y="493" type="line"/>
      <point x="397" y="403"/>
      <point x="359" y="383"/>
      <point x="285" y="383" type="curve" smooth="yes"/>
      <point x="259" y="383"/>
      <point x="218" y="386"/>
      <point x="204" y="387" type="curve"/>
    </contour>
    <contour>
      <point x="259" y="0"/>
      <point x="389" y="0"/>
      <point x="515" y="-4" type="curve"/>
      <point x="517" y="10" type="line"/>
      <point x="518" y="49"/>
      <point x="540" y="135"/>
      <point x="553" y="170" type="curve"/>
      <point x="538" y="176" type="line"/>
      <point x="520" y="79"/>
      <point x="476" y="53"/>
      <point x="369" y="53" type="curve" smooth="yes"/>
      <point x="312" y="53"/>
      <point x="252" y="61"/>
      <point x="181" y="86" type="curve"/>
      <point x="144" y="0" type="line"/>
    </contour>
    <contour>
      <point x="207" y="0" type="curve"/>
      <point x="241" y="33" type="line"/>
      <point x="240" y="144"/>
      <point x="238" y="255"/>
      <point x="242" y="342" type="curve"/>
      <point x="241" y="364" type="line"/>
      <point x="238" y="477"/>
      <point x="239" y="571"/>
      <point x="243" y="643" type="curve"/>
      <point x="357" y="646" type="line"/>
      <point x="357" y="672" type="line"/>
      <point x="316" y="672"/>
      <point x="139" y="670"/>
      <point x="42" y="680" type="curve"/>
      <point x="42" y="666" type="line"/>
      <point x="131" y="663"/>
      <point x="140" y="633"/>
      <point x="140" y="420" type="curve" smooth="yes"/>
      <point x="140" y="245" type="line" smooth="yes"/>
      <point x="140" y="38"/>
      <point x="132" y="13"/>
      <point x="38" y="12" type="curve"/>
      <point x="38" y="-4" type="line"/>
      <point x="91" y="0"/>
      <point x="133" y="0"/>
    </contour>
  </outline>
</glyph>
<glyph name="G" format="1">
  <advance width="722.0"/>
  <unicode hex="0047"/>
  <outline>
    <contour>
      <point x="615" y="154" type="curve" smooth="yes"/>
      <point x="615" y="284"/>
      <point x="625" y="299"/>
      <point x="686" y="302" type="curve"/>
      <point x="686" y="317" type="line"/>
      <point x="652" y="312"/>
      <point x="619" y="308"/>
      <point x="579" y="308" type="curve" smooth="yes"/>
      <point x="526" y="308"/>
      <point x="466" y="311"/>
      <point x="425" y="317" type="curve"/>
      <point x="425" y="302" type="line"/>
      <point x="511" y="297"/>
      <point x="524" y="271"/>
      <point x="524" y="128" type="curve" smooth="yes"/>
      <point x="524" y="95"/>
      <point x="523" y="68"/>
      <point x="522" y="40" type="curve" smooth="yes"/>
      <point x="521" y="24"/>
      <point x="489" y="16"/>
      <point x="439" y="23" type="curve"/>
      <point x="439" y="8" type="line"/>
      <point x="476" y="4"/>
      <point x="498" y="12"/>
      <point x="547" y="12" type="curve" smooth="yes"/>
      <point x="573" y="12"/>
      <point x="602" y="8"/>
      <point x="619" y="11" type="curve"/>
      <point x="619" y="29" type="line"/>
      <point x="614" y="52"/>
      <point x="615" y="107"/>
    </contour>
    <contour>
      <point x="619" y="11" type="curve"/>
      <point x="605" y="13"/>
      <point x="595" y="43"/>
      <point x="595" y="51" type="curve" smooth="yes"/>
      <point x="595" y="92"/>
      <point x="601" y="108"/>
      <point x="610" y="126" type="curve"/>
      <point x="594" y="126" type="line"/>
      <point x="567" y="69"/>
      <point x="526" y="44"/>
      <point x="459" y="44" type="curve" smooth="yes"/>
      <point x="275" y="44"/>
      <point x="179" y="197"/>
      <point x="179" y="354" type="curve" smooth="yes"/>
      <point x="179" y="548"/>
      <point x="286" y="629"/>
      <point x="423" y="629" type="curve" smooth="yes"/>
      <point x="485" y="629"/>
      <point x="541" y="611"/>
      <point x="576" y="586" type="curve" smooth="yes"/>
      <point x="607" y="562"/>
      <point x="616" y="528"/>
      <point x="614" y="475" type="curve"/>
      <point x="629" y="478" type="line"/>
      <point x="625" y="517"/>
      <point x="624" y="548"/>
      <point x="624" y="574" type="curve" smooth="yes"/>
      <point x="624" y="627"/>
      <point x="632" y="664"/>
      <point x="642" y="686" type="curve"/>
      <point x="632" y="691" type="line"/>
      <point x="628" y="680"/>
      <point x="612" y="676"/>
      <point x="595" y="676" type="curve" smooth="yes"/>
      <point x="564" y="676"/>
      <point x="502" y="684"/>
      <point x="431" y="684" type="curve" smooth="yes"/>
      <point x="183" y="684"/>
      <point x="59" y="523"/>
      <point x="59" y="345" type="curve" smooth="yes"/>
      <point x="59" y="147"/>
      <point x="204" y="-11"/>
      <point x="440" y="-11" type="curve" smooth="yes"/>
      <point x="493" y="-11"/>
      <point x="576" y="-2"/>
    </contour>
  </outline>
</glyph>
<glyph name="H" format="1">
  <advance width="782"/>
  <unicode hex="0048"/>
  <outline>
    <contour>
      <point x="542" y="397" type="line"/>
      <point x="503" y="395"/>
      <point x="449" y="394"/>
      <point x="398" y="394" type="curve" smooth="yes"/>
      <point x="358" y="394"/>
      <point x="286" y="395"/>
      <point x="240" y="397" type="curve"/>
      <point x="240" y="333" type="line"/>
      <point x="280" y="334"/>
      <point x="337" y="335"/>
      <point x="383" y="335" type="curve" smooth="yes"/>
      <point x="439" y="335"/>
      <point x="501" y="334"/>
      <point x="542" y="333" type="curve"/>
    </contour>
    <contour>
      <point x="240" y="424" type="line"/>
      <point x="240" y="638"/>
      <point x="251" y="662"/>
      <point x="338" y="666" type="curve"/>
      <point x="338" y="680" type="line"/>
      <point x="295" y="675"/>
      <point x="222" y="672"/>
      <point x="190" y="672" type="curve" smooth="yes"/>
      <point x="159" y="672"/>
      <point x="85" y="675"/>
      <point x="42" y="680" type="curve"/>
      <point x="42" y="666" type="line"/>
      <point x="129" y="662"/>
      <point x="140" y="638"/>
      <point x="140" y="424" type="curve" smooth="yes"/>
      <point x="140" y="248" type="line" smooth="yes"/>
      <point x="140" y="39"/>
      <point x="132" y="12"/>
      <point x="38" y="12" type="curve"/>
      <point x="38" y="-4" type="line"/>
      <point x="91" y="0"/>
      <point x="151" y="4"/>
      <point x="190" y="4" type="curve" smooth="yes"/>
      <point x="229" y="4"/>
      <point x="291" y="0"/>
      <point x="342" y="-4" type="curve"/>
      <point x="342" y="12" type="line"/>
      <point x="248" y="12"/>
      <point x="240" y="39"/>
      <point x="240" y="248" type="curve" smooth="yes"/>
    </contour>
    <contour>
      <point x="642" y="424" type="line"/>
      <point x="642" y="638"/>
      <point x="653" y="662"/>
      <point x="740" y="666" type="curve"/>
      <point x="740" y="680" type="line"/>
      <point x="697" y="675"/>
      <point x="624" y="672"/>
      <point x="592" y="672" type="curve" smooth="yes"/>
      <point x="561" y="672"/>
      <point x="487" y="675"/>
      <point x="444" y="680" type="curve"/>
      <point x="444" y="666" type="line"/>
      <point x="531" y="662"/>
      <point x="542" y="638"/>
      <point x="542" y="424" type="curve" smooth="yes"/>
      <point x="542" y="248" type="line" smooth="yes"/>
      <point x="542" y="39"/>
      <point x="534" y="12"/>
      <point x="440" y="12" type="curve"/>
      <point x="440" y="-4" type="line"/>
      <point x="493" y="0"/>
      <point x="553" y="4"/>
      <point x="592" y="4" type="curve" smooth="yes"/>
      <point x="631" y="4"/>
      <point x="693" y="0"/>
      <point x="744" y="-4" type="curve"/>
      <point x="744" y="12" type="line"/>
      <point x="650" y="12"/>
      <point x="642" y="39"/>
      <point x="642" y="248" type="curve" smooth="yes"/>
    </contour>
  </outline>
</glyph>
<glyph name="K" format="1">
  <advance width="666.0"/>
  <unicode hex="004B"/>
  <outline>
    <contour>
      <point x="408" y="680" type="curve"/>
      <point x="408" y="666" type="line"/>
      <point x="486" y="666"/>
      <point x="479" y="588"/>
      <point x="382" y="477" type="curve" smooth="yes"/>
      <point x="324" y="411"/>
      <point x="279" y="378"/>
      <point x="261" y="373" type="curve"/>
      <point x="261" y="361" type="line"/>
      <point x="376" y="368" type="line"/>
      <point x="421" y="431"/>
      <point x="445" y="468"/>
      <point x="481" y="512" type="curve" smooth="yes"/>
      <point x="570" y="622"/>
      <point x="601" y="664"/>
      <point x="682" y="666" type="curve"/>
      <point x="682" y="680" type="line"/>
      <point x="643" y="676"/>
      <point x="598" y="672"/>
      <point x="548" y="672" type="curve" smooth="yes"/>
      <point x="498" y="672"/>
      <point x="443" y="676"/>
    </contour>
    <contour>
      <point x="261" y="361" type="line"/>
      <point x="314" y="291"/>
      <point x="486" y="81"/>
      <point x="644" y="-68" type="curve"/>
      <point x="655" y="-60" type="line"/>
      <point x="574" y="67"/>
      <point x="436" y="311"/>
      <point x="380" y="436" type="curve"/>
      <point x="334" y="382" type="line"/>
    </contour>
    <contour>
      <point x="140" y="338" type="line"/>
      <point x="140" y="248" type="line" smooth="yes"/>
      <point x="140" y="39"/>
      <point x="132" y="12"/>
      <point x="38" y="12" type="curve"/>
      <point x="38" y="-4" type="line"/>
      <point x="91" y="0"/>
      <point x="151" y="4"/>
      <point x="190" y="4" type="curve" smooth="yes"/>
      <point x="225" y="4"/>
      <point x="280" y="0"/>
      <point x="326" y="-4" type="curve"/>
      <point x="326" y="12" type="line"/>
      <point x="247" y="12"/>
      <point x="240" y="39"/>
      <point x="240" y="248" type="curve" smooth="yes"/>
      <point x="240" y="339" type="line"/>
    </contour>
    <contour>
      <point x="240" y="424" type="line"/>
      <point x="240" y="638"/>
      <point x="249" y="663"/>
      <point x="322" y="666" type="curve"/>
      <point x="322" y="680" type="line"/>
      <point x="284" y="676"/>
      <point x="219" y="672"/>
      <point x="190" y="672" type="curve" smooth="yes"/>
      <point x="159" y="672"/>
      <point x="85" y="675"/>
      <point x="42" y="680" type="curve"/>
      <point x="42" y="666" type="line"/>
      <point x="129" y="662"/>
      <point x="140" y="638"/>
      <point x="140" y="424" type="curve"/>
      <point x="140" y="338" type="line"/>
      <point x="240" y="339" type="line"/>
    </contour>
  </outline>
</glyph>
<glyph name="M" format="1">
  <advance width="905"/>
  <unicode hex="004D"/>
  <outline>
    <contour>
      <point x="439" y="50" type="line"/>
      <point x="475" y="206" type="line"/>
      <point x="459" y="236"/>
      <point x="438" y="275"/>
      <point x="418" y="317" type="curve" smooth="yes"/>
      <point x="327" y="504"/>
      <point x="278" y="643"/>
      <point x="279" y="669" type="curve"/>
      <point x="158" y="632" type="line"/>
      <point x="168" y="609" type="line"/>
      <point x="208" y="531"/>
      <point x="300" y="341"/>
      <point x="360" y="204" type="curve" smooth="yes"/>
      <point x="427" y="50" type="line"/>
    </contour>
    <contour>
      <point x="439" y="50" type="line"/>
      <point x="478" y="168"/>
      <point x="652" y="559"/>
      <point x="669" y="587" type="curve"/>
      <point x="656" y="659" type="line"/>
      <point x="606" y="670" type="line"/>
      <point x="605" y="631"/>
      <point x="579" y="554"/>
      <point x="545" y="470" type="curve" smooth="yes"/>
      <point x="503" y="368"/>
      <point x="449" y="254"/>
      <point x="416" y="187" type="curve"/>
    </contour>
    <contour>
      <point x="623" y="614" type="line"/>
      <point x="639" y="487"/>
      <point x="652" y="355"/>
      <point x="654" y="293" type="curve" smooth="yes"/>
      <point x="665" y="28"/>
      <point x="655" y="14"/>
      <point x="573" y="12" type="curve"/>
      <point x="573" y="-4" type="line"/>
      <point x="609" y="0"/>
      <point x="671" y="4"/>
      <point x="719" y="4" type="curve" smooth="yes"/>
      <point x="761" y="4"/>
      <point x="831" y="0"/>
      <point x="866" y="-4" type="curve"/>
      <point x="866" y="12" type="line"/>
      <point x="778" y="14"/>
      <point x="765" y="32"/>
      <point x="749" y="321" type="curve" smooth="yes"/>
      <point x="746" y="396" type="line" smooth="yes"/>
      <point x="734" y="633"/>
      <point x="745" y="658"/>
      <point x="844" y="666" type="curve"/>
      <point x="844" y="680" type="line"/>
      <point x="811" y="675"/>
      <point x="749" y="666"/>
      <point x="686" y="666" type="curve" smooth="yes"/>
      <point x="647" y="666"/>
      <point x="623" y="667"/>
      <point x="606" y="670" type="curve"/>
      <point x="610" y="644" type="line"/>
    </contour>
    <contour>
      <point x="282" y="-4" type="curve"/>
      <point x="282" y="12" type="line"/>
      <point x="206" y="13"/>
      <point x="194" y="40"/>
      <point x="204" y="290" type="curve" smooth="yes"/>
      <point x="205" y="329" type="line" smooth="yes"/>
      <point x="211" y="487"/>
      <point x="217" y="554"/>
      <point x="221" y="600" type="curve"/>
      <point x="279" y="669" type="line"/>
      <point x="258" y="666"/>
      <point x="228" y="666"/>
      <point x="199" y="666" type="curve" smooth="yes"/>
      <point x="149" y="666"/>
      <point x="78" y="674"/>
      <point x="38" y="680" type="curve"/>
      <point x="38" y="666" type="line"/>
      <point x="130" y="659"/>
      <point x="147" y="635"/>
      <point x="139" y="380" type="curve" smooth="yes"/>
      <point x="138" y="320" type="line" smooth="yes"/>
      <point x="130" y="38"/>
      <point x="109" y="13"/>
      <point x="23" y="12" type="curve"/>
      <point x="23" y="-4" type="line"/>
      <point x="56" y="0"/>
      <point x="115" y="4"/>
      <point x="159" y="4" type="curve" smooth="yes"/>
      <point x="209" y="4"/>
      <point x="246" y="0"/>
    </contour>
  </outline>
</glyph>
<glyph name="N" format="1">
  <advance width="761"/>
  <unicode hex="004E"/>
  <outline>
    <contour>
      <point x="632" y="-24" type="curve"/>
      <point x="646" y="-24" type="line"/>
      <point x="645" y="15"/>
      <point x="645" y="99"/>
      <point x="645" y="248" type="curve"/>
      <point x="639" y="254"/>
      <point x="610" y="253"/>
      <point x="605" y="247" type="curve"/>
      <point x="605" y="195"/>
      <point x="608" y="176"/>
      <point x="602" y="184" type="curve" smooth="yes"/>
      <point x="523" y="275"/>
      <point x="461" y="358"/>
      <point x="408" y="426" type="curve" smooth="yes"/>
      <point x="304" y="555"/>
      <point x="247" y="637"/>
      <point x="236" y="672" type="curve"/>
      <point x="221" y="667"/>
      <point x="197" y="666"/>
      <point x="176" y="666" type="curve"/>
      <point x="158" y="606" type="line"/>
      <point x="168" y="593"/>
      <point x="178" y="553"/>
      <point x="190" y="538" type="curve" smooth="yes"/>
      <point x="287" y="419"/>
      <point x="424" y="248"/>
      <point x="534" y="106" type="curve" smooth="yes"/>
      <point x="571" y="61"/>
      <point x="616" y="4"/>
    </contour>
    <contour>
      <point x="645" y="71" type="line"/>
      <point x="647" y="308" type="line" smooth="yes"/>
      <point x="650" y="639"/>
      <point x="660" y="663"/>
      <point x="738" y="666" type="curve"/>
      <point x="738" y="680" type="line"/>
      <point x="711" y="676"/>
      <point x="661" y="672"/>
      <point x="612" y="672" type="curve" smooth="yes"/>
      <point x="581" y="672"/>
      <point x="511" y="676"/>
      <point x="481" y="680" type="curve"/>
      <point x="481" y="666" type="line"/>
      <point x="570" y="658"/>
      <point x="586" y="631"/>
      <point x="586" y="403" type="curve" smooth="yes"/>
      <point x="586" y="308"/>
      <point x="581" y="173"/>
      <point x="574" y="91" type="curve"/>
    </contour>
    <contour>
      <point x="302" y="-4" type="curve"/>
      <point x="302" y="12" type="line"/>
      <point x="208" y="16"/>
      <point x="203" y="56"/>
      <point x="203" y="265" type="curve" smooth="yes"/>
      <point x="203" y="313"/>
      <point x="206" y="486"/>
      <point x="210" y="588" type="curve"/>
      <point x="195" y="666" type="line"/>
      <point x="176" y="666" type="line" smooth="yes"/>
      <point x="126" y="666"/>
      <point x="60" y="675"/>
      <point x="21" y="680" type="curve"/>
      <point x="21" y="666" type="line"/>
      <point x="123" y="658"/>
      <point x="140" y="622"/>
      <point x="140" y="400" type="curve" smooth="yes"/>
      <point x="140" y="287" type="line" smooth="yes"/>
      <point x="140" y="56"/>
      <point x="132" y="17"/>
      <point x="36" y="12" type="curve"/>
      <point x="36" y="-4" type="line"/>
      <point x="72" y="0"/>
      <point x="132" y="4"/>
      <point x="173" y="4" type="curve" smooth="yes"/>
      <point x="214" y="4"/>
      <point x="266" y="0"/>
    </contour>
  </outline>
</glyph>
<glyph name="S" format="1">
  <advance width="528.0"/>
  <unicode hex="0053"/>
  <outline>
    <contour>
      <point x="280" y="683" type="curve" smooth="yes"/>
      <point x="155" y="683"/>
      <point x="76" y="616"/>
      <point x="76" y="515" type="curve" smooth="yes"/>
      <point x="76" y="425"/>
      <point x="151" y="369"/>
      <point x="190" y="340" type="curve" smooth="yes"/>
      <point x="239" y="305"/>
      <point x="275" y="276"/>
      <point x="297" y="256" type="curve" smooth="yes"/>
      <point x="343" y="214"/>
      <point x="360" y="181"/>
      <point x="360" y="141" type="curve" smooth="yes"/>
      <point x="360" y="76"/>
      <point x="310" y="33"/>
      <point x="238" y="33" type="curve" smooth="yes"/>
      <point x="167" y="33"/>
      <point x="73" y="70"/>
      <point x="61" y="202" type="curve"/>
      <point x="47" y="197" type="line"/>
      <point x="74" y="79"/>
      <point x="60" y="13"/>
      <point x="52" y="-3" type="curve"/>
      <point x="62" y="-6" type="line"/>
      <point x="67" y="-2"/>
      <point x="77" y="-2"/>
      <point x="82" y="-2" type="curve" smooth="yes"/>
      <point x="93" y="-2"/>
      <point x="112" y="-4"/>
      <point x="134" y="-8" type="curve" smooth="yes"/>
      <point x="162" y="-13"/>
      <point x="197" y="-18"/>
      <point x="232" y="-18" type="curve" smooth="yes"/>
      <point x="391" y="-18"/>
      <point x="463" y="56"/>
      <point x="463" y="171" type="curve" smooth="yes"/>
      <point x="463" y="277"/>
      <point x="391" y="319"/>
      <point x="313" y="380" type="curve" smooth="yes"/>
      <point x="240" y="438"/>
      <point x="178" y="478"/>
      <point x="178" y="537" type="curve" smooth="yes"/>
      <point x="178" y="602"/>
      <point x="228" y="631"/>
      <point x="290" y="631" type="curve" smooth="yes"/>
      <point x="327" y="631"/>
      <point x="369" y="620"/>
      <point x="393" y="603" type="curve" smooth="yes"/>
      <point x="429" y="579"/>
      <point x="433" y="531"/>
      <point x="432" y="485" type="curve"/>
      <point x="447" y="487" type="line"/>
      <point x="433" y="602"/>
      <point x="441" y="647"/>
      <point x="452" y="680" type="curve"/>
      <point x="443" y="682" type="line"/>
      <point x="438" y="675"/>
      <point x="429" y="674"/>
      <point x="418" y="674" type="curve" smooth="yes"/>
      <point x="396" y="674"/>
      <point x="336" y="683"/>
    </contour>
  </outline>
</glyph>
<glyph name="T" format="1">
  <advance width="645.0"/>
  <unicode hex="0054"/>
  <outline>
    <contour>
      <point x="334" y="614" type="curve"/>
      <point x="334" y="627"/>
      <point x="348" y="654"/>
      <point x="348" y="666" type="curve"/>
      <point x="320" y="666" type="line" smooth="yes"/>
      <point x="238" y="666"/>
      <point x="162" y="667"/>
      <point x="116" y="682" type="curve" smooth="yes"/>
      <point x="97" y="688"/>
      <point x="88" y="695"/>
      <point x="86" y="704" type="curve"/>
      <point x="74" y="702" type="line"/>
      <point x="74" y="666"/>
      <point x="62" y="572"/>
      <point x="37" y="497" type="curve"/>
      <point x="52" y="495" type="line"/>
      <point x="74" y="602"/>
      <point x="110" y="614"/>
      <point x="283" y="614" type="curve"/>
      <point x="298" y="614"/>
      <point x="296" y="615"/>
    </contour>
    <contour>
      <point x="264" y="615" type="curve"/>
      <point x="301" y="616"/>
      <point x="347" y="614"/>
      <point x="421" y="614" type="curve" smooth="yes"/>
      <point x="560" y="614"/>
      <point x="593" y="593"/>
      <point x="599" y="496" type="curve"/>
      <point x="613" y="499" type="line"/>
      <point x="596" y="583"/>
      <point x="601" y="670"/>
      <point x="606" y="701" type="curve"/>
      <point x="595" y="704" type="line"/>
      <point x="592" y="693"/>
      <point x="578" y="682"/>
      <point x="551" y="676" type="curve" smooth="yes"/>
      <point x="508" y="666"/>
      <point x="435" y="666"/>
      <point x="334" y="666" type="curve" smooth="yes"/>
      <point x="278" y="666" type="line"/>
      <point x="278" y="654"/>
      <point x="264" y="628"/>
    </contour>
    <contour>
      <point x="286" y="631" type="line"/>
      <point x="287" y="530"/>
      <point x="287" y="499"/>
      <point x="287" y="439" type="curve" smooth="yes"/>
      <point x="287" y="324" type="line"/>
      <point x="387" y="324" type="line"/>
      <point x="387" y="439" type="line" smooth="yes"/>
      <point x="387" y="499"/>
      <point x="387" y="530"/>
      <point x="388" y="631" type="curve"/>
    </contour>
    <contour>
      <point x="287" y="338" type="line"/>
      <point x="287" y="248" type="line" smooth="yes"/>
      <point x="287" y="39"/>
      <point x="279" y="12"/>
      <point x="185" y="12" type="curve"/>
      <point x="185" y="-4" type="line"/>
      <point x="238" y="0"/>
      <point x="298" y="4"/>
      <point x="337" y="4" type="curve" smooth="yes"/>
      <point x="376" y="4"/>
      <point x="438" y="0"/>
      <point x="489" y="-4" type="curve"/>
      <point x="489" y="12" type="line"/>
      <point x="395" y="12"/>
      <point x="387" y="39"/>
      <point x="387" y="248" type="curve" smooth="yes"/>
      <point x="387" y="338" type="line"/>
    </contour>
  </outline>
</glyph>
<glyph name="U" format="1">
  <advance width="736.0"/>
  <unicode hex="0055"/>
  <outline>
    <contour>
      <point x="632" y="266" type="curve" smooth="yes"/>
      <point x="632" y="418" type="line" smooth="yes"/>
      <point x="632" y="638"/>
      <point x="647" y="665"/>
      <point x="715" y="666" type="curve"/>
      <point x="715" y="680" type="line"/>
      <point x="689" y="676"/>
      <point x="646" y="672"/>
      <point x="604" y="672" type="curve" smooth="yes"/>
      <point x="560" y="672"/>
      <point x="509" y="676"/>
      <point x="472" y="680" type="curve"/>
      <point x="472" y="666" type="line"/>
      <point x="558" y="662"/>
      <point x="562" y="616"/>
      <point x="562" y="292" type="curve" smooth="yes"/>
      <point x="562" y="113"/>
      <point x="507" y="50"/>
      <point x="402" y="50" type="curve" smooth="yes"/>
      <point x="289" y="50"/>
      <point x="227" y="126"/>
      <point x="227" y="273" type="curve" smooth="yes"/>
      <point x="227" y="323" type="line" smooth="yes"/>
      <point x="227" y="637"/>
      <point x="239" y="665"/>
      <point x="321" y="666" type="curve"/>
      <point x="321" y="680" type="line"/>
      <point x="285" y="676"/>
      <point x="232" y="672"/>
      <point x="200" y="672" type="curve" smooth="yes"/>
      <point x="159" y="672"/>
      <point x="84" y="675"/>
      <point x="39" y="680" type="curve"/>
      <point x="39" y="666" type="line"/>
      <point x="119" y="662"/>
      <point x="127" y="645"/>
      <point x="127" y="475" type="curve" smooth="yes"/>
      <point x="127" y="232" type="line" smooth="yes"/>
      <point x="127" y="61"/>
      <point x="224" y="-14"/>
      <point x="382" y="-14" type="curve" smooth="yes"/>
      <point x="523" y="-14"/>
      <point x="632" y="45"/>
    </contour>
  </outline>
</glyph>
<glyph name="W" format="1">
  <advance width="1072"/>
  <unicode hex="0057"/>
  <outline>
    <contour>
      <point x="44" y="666" type="line"/>
      <point x="123" y="666"/>
      <point x="143" y="620"/>
      <point x="217" y="324" type="curve" smooth="yes"/>
      <point x="304" y="-24" type="line"/>
      <point x="318" y="-24" type="line"/>
      <point x="366" y="155" type="line"/>
      <point x="333" y="264"/>
      <point x="309" y="361"/>
      <point x="290" y="440" type="curve" smooth="yes"/>
      <point x="246" y="623"/>
      <point x="252" y="665"/>
      <point x="329" y="666" type="curve"/>
      <point x="329" y="680" type="line"/>
      <point x="289" y="674"/>
      <point x="228" y="672"/>
      <point x="185" y="672" type="curve" smooth="yes"/>
      <point x="160" y="672"/>
      <point x="72" y="676"/>
      <point x="44" y="680" type="curve"/>
    </contour>
    <contour>
      <point x="748" y="-24" type="line"/>
      <point x="873" y="413" type="line" smooth="yes"/>
      <point x="937" y="638"/>
      <point x="963" y="664"/>
      <point x="1026" y="666" type="curve"/>
      <point x="1026" y="680" type="line"/>
      <point x="1007" y="677"/>
      <point x="966" y="672"/>
      <point x="931" y="672" type="curve" smooth="yes"/>
      <point x="891" y="672"/>
      <point x="816" y="675"/>
      <point x="775" y="680" type="curve"/>
      <point x="775" y="666" type="line"/>
      <point x="855" y="663"/>
      <point x="861" y="641"/>
      <point x="798" y="393" type="curve" smooth="yes"/>
      <point x="787" y="349"/>
      <point x="746" y="218"/>
      <point x="701" y="83" type="curve"/>
    </contour>
    <contour>
      <point x="318" y="-24" type="line"/>
      <point x="383" y="127" type="line" smooth="yes"/>
      <point x="454" y="294"/>
      <point x="525" y="420"/>
      <point x="586" y="546" type="curve"/>
      <point x="551" y="669" type="line"/>
      <point x="519" y="593" type="line" smooth="yes"/>
      <point x="407" y="320"/>
      <point x="337" y="206"/>
      <point x="292" y="120" type="curve"/>
    </contour>
    <contour>
      <point x="522" y="495" type="line"/>
      <point x="599" y="324"/>
      <point x="646" y="195"/>
      <point x="734" y="-24" type="curve"/>
      <point x="748" y="-24" type="line"/>
      <point x="783" y="138" type="line"/>
      <point x="724" y="257"/>
      <point x="641" y="462"/>
      <point x="565" y="669" type="curve"/>
      <point x="551" y="669" type="line"/>
    </contour>
  </outline>
</glyph>
<glyph name="Y" format="1">
  <advance width="651.0"/>
  <unicode hex="0059"/>
  <outline>
    <contour>
      <point x="369" y="280" type="line"/>
      <point x="394" y="327"/>
      <point x="415" y="370"/>
      <point x="436" y="406" type="curve" smooth="yes"/>
      <point x="548" y="615"/>
      <point x="586" y="665"/>
      <point x="656" y="666" type="curve"/>
      <point x="656" y="680" type="line"/>
      <point x="633" y="676"/>
      <point x="592" y="672"/>
      <point x="534" y="672" type="curve" smooth="yes"/>
      <point x="485" y="672"/>
      <point x="425" y="676"/>
      <point x="407" y="680" type="curve"/>
      <point x="407" y="666" type="line"/>
      <point x="462" y="667"/>
      <point x="473" y="630"/>
      <point x="405" y="491" type="curve" smooth="yes"/>
      <point x="377" y="435"/>
      <point x="345" y="374"/>
      <point x="304" y="306" type="curve"/>
    </contour>
    <contour>
      <point x="283" y="272" type="curve"/>
      <point x="370" y="325" type="line"/>
      <point x="343" y="369"/>
      <point x="328" y="394"/>
      <point x="283" y="476" type="curve" smooth="yes"/>
      <point x="190" y="646"/>
      <point x="213" y="666"/>
      <point x="269" y="666" type="curve"/>
      <point x="269" y="680" type="line"/>
      <point x="251" y="677"/>
      <point x="204" y="672"/>
      <point x="165" y="672" type="curve" smooth="yes"/>
      <point x="129" y="672"/>
      <point x="40" y="675"/>
      <point x="-3" y="680" type="curve"/>
      <point x="-3" y="666" type="line"/>
      <point x="55" y="666"/>
      <point x="74" y="647"/>
      <point x="190" y="446" type="curve" smooth="yes"/>
      <point x="229" y="378"/>
      <point x="271" y="299"/>
    </contour>
    <contour>
      <point x="274" y="338" type="line"/>
      <point x="274" y="248" type="line" smooth="yes"/>
      <point x="274" y="39"/>
      <point x="266" y="12"/>
      <point x="172" y="12" type="curve"/>
      <point x="172" y="-4" type="line"/>
      <point x="225" y="0"/>
      <point x="285" y="4"/>
      <point x="324" y="4" type="curve" smooth="yes"/>
      <point x="363" y="4"/>
      <point x="425" y="0"/>
      <point x="476" y="-4" type="curve"/>
      <point x="476" y="12" type="line"/>
      <point x="382" y="12"/>
      <point x="374" y="39"/>
      <point x="374" y="248" type="curve" smooth="yes"/>
      <point x="374" y="338" type="line"/>
    </contour>
  </outline>
</glyph>
<glyph name="cent" format="1">
  <advance width="406.0"/>
  <unicode hex="00A2"/>
  <outline>
    <contour>
      <point x="222" y="707" type="curve"/>
      <point x="219" y="699" type="line"/>
      <point x="225" y="687"/>
      <point x="217" y="458"/>
      <point x="212" y="228" type="curve" smooth="yes"/>
      <point x="207" y="21"/>
      <point x="201" y="-59"/>
      <point x="190" y="-70" type="curve"/>
      <point x="197" y="-75" type="line"/>
      <point x="216" y="-55"/>
      <point x="233" y="-43"/>
      <point x="253" y="-36" type="curve"/>
      <point x="257" y="-31" type="line"/>
      <point x="248" y="-4"/>
      <point x="254" y="239"/>
      <point x="261" y="529" type="curve" smooth="yes"/>
      <point x="264" y="655"/>
      <point x="275" y="728"/>
      <point x="287" y="740" type="curve"/>
      <point x="281" y="745" type="line"/>
      <point x="265" y="724"/>
      <point x="235" y="712"/>
    </contour>
    <contour>
      <point x="352" y="159" type="curve"/>
      <point x="354" y="163" type="line"/>
      <point x="357" y="179"/>
      <point x="363" y="209"/>
      <point x="388" y="277" type="curve"/>
      <point x="377" y="279" type="line"/>
      <point x="362" y="211"/>
      <point x="320" y="194"/>
      <point x="274" y="194" type="curve" smooth="yes"/>
      <point x="168" y="194"/>
      <point x="108" y="272"/>
      <point x="108" y="364" type="curve" smooth="yes"/>
      <point x="108" y="476"/>
      <point x="169" y="519"/>
      <point x="249" y="519" type="curve" smooth="yes"/>
      <point x="297" y="519"/>
      <point x="333" y="504"/>
      <point x="349" y="490" type="curve" smooth="yes"/>
      <point x="363" y="478"/>
      <point x="370" y="455"/>
      <point x="369" y="421" type="curve"/>
      <point x="379" y="422" type="line"/>
      <point x="372" y="493"/>
      <point x="375" y="530"/>
      <point x="379" y="547" type="curve"/>
      <point x="375" y="547" type="line"/>
      <point x="371" y="545"/>
      <point x="364" y="545"/>
      <point x="360" y="545" type="curve" smooth="yes"/>
      <point x="343" y="545"/>
      <point x="297" y="552"/>
      <point x="254" y="552" type="curve" smooth="yes"/>
      <point x="116" y="552"/>
      <point x="22" y="477"/>
      <point x="22" y="359" type="curve" smooth="yes"/>
      <point x="22" y="236"/>
      <point x="130" y="160"/>
      <point x="272" y="160" type="curve" smooth="yes"/>
      <point x="286" y="160"/>
      <point x="318" y="161"/>
      <point x="327" y="161" type="curve" smooth="yes"/>
      <point x="336" y="161"/>
      <point x="348" y="160"/>
    </contour>
  </outline>
</glyph>
<glyph name="brokenbar" format="1">
  <advance width="159.0"/>
  <unicode hex="00A6"/>
  <outline>
    <contour>
      <point x="110" y="416" type="curve"/>
      <point x="106" y="440"/>
      <point x="99" y="438"/>
      <point x="99" y="578" type="curve" smooth="yes"/>
      <point x="99" y="719"/>
      <point x="102" y="736"/>
      <point x="110" y="766" type="curve"/>
      <point x="100" y="761"/>
      <point x="91" y="759"/>
      <point x="80" y="759" type="curve" smooth="yes"/>
      <point x="68" y="759"/>
      <point x="60" y="761"/>
      <point x="49" y="766" type="curve"/>
      <point x="58" y="736"/>
      <point x="62" y="719"/>
      <point x="61" y="578" type="curve" smooth="yes"/>
      <point x="60" y="438"/>
      <point x="54" y="440"/>
      <point x="49" y="415" type="curve"/>
      <point x="56" y="417"/>
      <point x="70" y="421"/>
      <point x="82" y="421" type="curve" smooth="yes"/>
      <point x="92" y="421"/>
      <point x="105" y="418"/>
    </contour>
    <contour>
      <point x="110" y="-89" type="curve"/>
      <point x="106" y="-69"/>
      <point x="99" y="-53"/>
      <point x="99" y="87" type="curve" smooth="yes"/>
      <point x="99" y="228"/>
      <point x="102" y="227"/>
      <point x="110" y="263" type="curve"/>
      <point x="100" y="257"/>
      <point x="91" y="255"/>
      <point x="80" y="255" type="curve" smooth="yes"/>
      <point x="68" y="255"/>
      <point x="60" y="257"/>
      <point x="49" y="263" type="curve"/>
      <point x="58" y="227"/>
      <point x="62" y="228"/>
      <point x="61" y="87" type="curve" smooth="yes"/>
      <point x="60" y="-53"/>
      <point x="54" y="-69"/>
      <point x="49" y="-90" type="curve"/>
      <point x="56" y="-88"/>
      <point x="70" y="-85"/>
      <point x="82" y="-85" type="curve" smooth="yes"/>
      <point x="92" y="-85"/>
      <point x="105" y="-87"/>
    </contour>
  </outline>
</glyph>
<glyph name="quoteright" format="1">
  <advance width="246.0"/>
  <unicode hex="2019"/>
  <outline>
    <contour>
      <point x="64" y="636" type="curve"/>
      <point x="57" y="647" type="line"/>
      <point x="84" y="667"/>
      <point x="134" y="688"/>
      <point x="167" y="688" type="curve" smooth="yes"/>
      <point x="198" y="688"/>
      <point x="209" y="670"/>
      <point x="210" y="636" type="curve" smooth="yes"/>
      <point x="212" y="580"/>
      <point x="158" y="467"/>
      <point x="64" y="387" type="curve"/>
      <point x="55" y="402" type="line"/>
      <point x="112" y="446"/>
      <point x="137" y="516"/>
      <point x="137" y="578" type="curve" smooth="yes"/>
      <point x="137" y="646"/>
      <point x="104" y="665"/>
    </contour>
  </outline>
</glyph>
<glyph name="E.001" format="1">
  <advance width="603.0"/>
  <outline>
    <contour>
      <point x="256" y="0"/>
      <point x="382" y="0"/>
      <point x="505" y="-4" type="curve"/>
      <point x="507" y="10" type="line"/>
      <point x="508" y="49"/>
      <point x="531" y="134"/>
      <point x="544" y="169" type="curve"/>
      <point x="529" y="175" type="line"/>
      <point x="510" y="79"/>
      <point x="467" y="53"/>
      <point x="358" y="53" type="curve" smooth="yes"/>
      <point x="305" y="53"/>
      <point x="248" y="62"/>
      <point x="181" y="86" type="curve"/>
      <point x="144" y="0" type="line"/>
    </contour>
    <contour>
      <point x="207" y="0" type="curve"/>
      <point x="243" y="33" type="line"/>
      <point x="238" y="132"/>
      <point x="239" y="251"/>
      <point x="241" y="353" type="curve"/>
      <point x="238" y="471"/>
      <point x="239" y="570"/>
      <point x="243" y="648" type="curve"/>
      <point x="361" y="649" type="line"/>
      <point x="361" y="672" type="line"/>
      <point x="327" y="672"/>
      <point x="122" y="672"/>
      <point x="42" y="680" type="curve"/>
      <point x="42" y="666" type="line"/>
      <point x="133" y="658"/>
      <point x="140" y="628"/>
      <point x="140" y="420" type="curve" smooth="yes"/>
      <point x="140" y="245" type="line" smooth="yes"/>
      <point x="140" y="38"/>
      <point x="132" y="14"/>
      <point x="38" y="12" type="curve"/>
      <point x="38" y="-4" type="line"/>
      <point x="91" y="0"/>
      <point x="133" y="0"/>
    </contour>
    <contour>
      <point x="190" y="607" type="line" name=""/>
      <point x="213" y="610"/>
      <point x="278" y="618"/>
      <point x="313" y="618" type="curve" smooth="yes" name=""/>
      <point x="449" y="618"/>
      <point x="487" y="600"/>
      <point x="494" y="496" type="curve" name=""/>
      <point x="510" y="499" type="line" name=""/>
      <point x="491" y="583"/>
      <point x="500" y="663"/>
      <point x="509" y="698" type="curve" name=""/>
      <point x="499" y="701" type="line" name=""/>
      <point x="493" y="685"/>
      <point x="478" y="672"/>
      <point x="369" y="672" type="curve" name=""/>
      <point x="214" y="669" type="line" name=""/>
    </contour>
    <contour>
      <point x="213" y="320" type="line"/>
      <point x="224" y="321"/>
      <point x="255" y="323"/>
      <point x="265" y="323" type="curve" smooth="yes"/>
      <point x="308" y="323"/>
      <point x="367" y="323"/>
      <point x="396" y="307" type="curve" smooth="yes"/>
      <point x="427" y="289"/>
      <point x="438" y="265"/>
      <point x="441" y="220" type="curve"/>
      <point x="455" y="224" type="line"/>
      <point x="446" y="289"/>
      <point x="445" y="324"/>
      <point x="445" y="351" type="curve" smooth="yes"/>
      <point x="445" y="382"/>
      <point x="451" y="419"/>
      <point x="461" y="445" type="curve"/>
      <point x="446" y="448" type="line"/>
      <point x="435" y="390"/>
      <point x="399" y="380"/>
      <point x="314" y="380" type="curve" smooth="yes"/>
      <point x="293" y="380"/>
      <point x="241" y="383"/>
      <point x="213" y="384" type="curve"/>
    </contour>
  </outline>
</glyph>
<glyph name="G.001" format="1">
  <advance width="766.0"/>
  <outline>
    <contour>
      <point x="613" y="135" type="curve" smooth="yes"/>
      <point x="613" y="275"/>
      <point x="622" y="302"/>
      <point x="694" y="302" type="curve"/>
      <point x="694" y="317" type="line"/>
      <point x="639" y="309"/>
      <point x="604" y="309"/>
      <point x="565" y="309" type="curve" smooth="yes"/>
      <point x="514" y="309"/>
      <point x="459" y="313"/>
      <point x="423" y="317" type="curve"/>
      <point x="423" y="302" type="line"/>
      <point x="504" y="297"/>
      <point x="517" y="283"/>
      <point x="517" y="196" type="curve" smooth="yes"/>
      <point x="517" y="151" type="line"/>
      <point x="534" y="151" type="line"/>
      <point x="544" y="17"/>
      <point x="634" y="-4"/>
      <point x="685" y="-4" type="curve"/>
      <point x="685" y="12" type="line"/>
      <point x="646" y="6"/>
      <point x="613" y="44"/>
    </contour>
    <contour>
      <point x="586" y="121" type="curve"/>
      <point x="585" y="196" type="line"/>
      <point x="517" y="196" type="line"/>
      <point x="517" y="97"/>
      <point x="472" y="50"/>
      <point x="392" y="50" type="curve" smooth="yes"/>
      <point x="268" y="50"/>
      <point x="169" y="187"/>
      <point x="169" y="354" type="curve" smooth="yes"/>
      <point x="169" y="547"/>
      <point x="274" y="629"/>
      <point x="412" y="629" type="curve" smooth="yes"/>
      <point x="474" y="629"/>
      <point x="536" y="612"/>
      <point x="573" y="586" type="curve" smooth="yes"/>
      <point x="604" y="562"/>
      <point x="613" y="528"/>
      <point x="611" y="475" type="curve"/>
      <point x="626" y="478" type="line"/>
      <point x="622" y="517"/>
      <point x="621" y="548"/>
      <point x="621" y="574" type="curve" smooth="yes"/>
      <point x="621" y="627"/>
      <point x="629" y="664"/>
      <point x="639" y="686" type="curve"/>
      <point x="629" y="691" type="line"/>
      <point x="625" y="680"/>
      <point x="609" y="676"/>
      <point x="592" y="676" type="curve" smooth="yes"/>
      <point x="562" y="676"/>
      <point x="498" y="684"/>
      <point x="427" y="684" type="curve" smooth="yes"/>
      <point x="176" y="684"/>
      <point x="50" y="522"/>
      <point x="50" y="344" type="curve" smooth="yes"/>
      <point x="50" y="138"/>
      <point x="178" y="-10"/>
      <point x="377" y="-10" type="curve" smooth="yes"/>
      <point x="486" y="-10"/>
      <point x="562" y="42"/>
    </contour>
  </outline>
</glyph>
<glyph name="T.copy_1" format="1">
  <advance width="645.0"/>
  <outline>
    <contour>
      <point x="334" y="611" type="curve"/>
      <point x="334" y="624"/>
      <point x="348" y="651"/>
      <point x="348" y="663" type="curve"/>
      <point x="320" y="663" type="line" smooth="yes"/>
      <point x="238" y="663"/>
      <point x="162" y="664"/>
      <point x="116" y="679" type="curve" smooth="yes"/>
      <point x="97" y="685"/>
      <point x="88" y="692"/>
      <point x="86" y="701" type="curve"/>
      <point x="74" y="698" type="line"/>
      <point x="74" y="663"/>
      <point x="62" y="571"/>
      <point x="37" y="497" type="curve"/>
      <point x="52" y="495" type="line"/>
      <point x="73" y="599"/>
      <point x="110" y="611"/>
      <point x="283" y="611" type="curve"/>
      <point x="298" y="611"/>
      <point x="296" y="612"/>
    </contour>
    <contour>
      <point x="264" y="612" type="curve"/>
      <point x="301" y="613"/>
      <point x="347" y="611"/>
      <point x="421" y="611" type="curve" smooth="yes"/>
      <point x="560" y="611"/>
      <point x="593" y="591"/>
      <point x="599" y="496" type="curve"/>
      <point x="613" y="499" type="line"/>
      <point x="596" y="582"/>
      <point x="601" y="667"/>
      <point x="606" y="698" type="curve"/>
      <point x="595" y="701" type="line"/>
      <point x="592" y="690"/>
      <point x="578" y="679"/>
      <point x="551" y="673" type="curve" smooth="yes"/>
      <point x="508" y="663"/>
      <point x="435" y="663"/>
      <point x="334" y="663" type="curve" smooth="yes"/>
      <point x="278" y="663" type="line"/>
      <point x="278" y="651"/>
      <point x="264" y="625"/>
    </contour>
    <contour>
      <point x="286" y="628" type="line"/>
      <point x="287" y="529"/>
      <point x="287" y="498"/>
      <point x="287" y="439" type="curve" smooth="yes"/>
      <point x="287" y="324" type="line"/>
      <point x="387" y="324" type="line"/>
      <point x="387" y="439" type="line" smooth="yes"/>
      <point x="387" y="498"/>
      <point x="387" y="529"/>
      <point x="388" y="628" type="curve"/>
    </contour>
    <contour>
      <point x="287" y="338" type="line"/>
      <point x="287" y="248" type="line" smooth="yes"/>
      <point x="287" y="39"/>
      <point x="279" y="12"/>
      <point x="185" y="12" type="curve"/>
      <point x="185" y="-4" type="line"/>
      <point x="238" y="0"/>
      <point x="298" y="4"/>
      <point x="337" y="4" type="curve" smooth="yes"/>
      <point x="376" y="4"/>
      <point x="438" y="0"/>
      <point x="489" y="-4" type="curve"/>
      <point x="489" y="12" type="line"/>
      <point x="395" y="12"/>
      <point x="387" y="39"/>
      <point x="387" y="248" type="curve" smooth="yes"/>
      <point x="387" y="338" type="line"/>
    </contour>
  </outline>
</glyph>
